<svg id="svg" version="1.1" xmlns="http://www.w3.org/2000/svg" xmlns:xlink="http://www.w3.org/1999/xlink" width="400" height="492.3076923076923" viewBox="0, 0, 400,492.3076923076923"><g id="svgg"><path id="path0" d="M156.880 34.080 C 155.946 35.014,156.222 57.877,157.174 58.386 C 158.355 59.018,211.686 58.954,212.320 58.320 C 213.005 57.635,213.005 34.765,212.320 34.080 C 211.626 33.386,157.574 33.386,156.880 34.080 M64.880 95.280 C 64.183 95.977,64.183 180.823,64.880 181.520 C 65.814 182.454,88.677 182.178,89.186 181.226 C 90.039 179.632,89.730 96.242,88.869 95.462 C 87.929 94.612,65.716 94.444,64.880 95.280 M157.062 95.531 C 156.002 96.703,156.065 118.773,157.131 119.738 C 158.016 120.539,272.140 120.782,273.626 119.986 C 274.792 119.362,274.831 96.514,273.669 95.462 C 272.475 94.382,158.041 94.450,157.062 95.531 M341.862 95.531 C 341.062 96.415,340.821 179.744,341.614 181.226 C 342.123 182.178,364.986 182.454,365.920 181.520 C 366.617 180.823,366.617 95.977,365.920 95.280 C 365.025 94.385,342.688 94.618,341.862 95.531 M126.262 126.331 C 125.202 127.503,125.265 149.573,126.331 150.538 C 127.503 151.598,149.573 151.535,150.538 150.469 C 151.598 149.297,151.535 127.227,150.469 126.262 C 149.297 125.202,127.227 125.265,126.262 126.331 M280.080 126.080 C 279.184 126.976,279.418 149.712,280.331 150.538 C 281.271 151.388,303.484 151.556,304.320 150.720 C 305.006 150.034,305.006 126.766,304.320 126.080 C 303.635 125.395,280.765 125.395,280.080 126.080 M95.700 218.048 C 94.960 218.806,94.980 242.519,95.721 243.135 C 96.064 243.419,100.580 243.607,108.893 243.684 C 126.572 243.846,125.600 242.837,125.600 261.023 C 125.600 272.192,125.654 273.125,126.331 273.738 C 127.503 274.798,149.573 274.735,150.538 273.669 C 151.413 272.702,151.570 219.194,150.700 218.498 C 149.879 217.840,96.330 217.402,95.700 218.048 M295.435 217.900 C 285.357 217.975,280.500 218.151,280.135 218.454 C 279.173 219.252,279.364 272.862,280.331 273.738 C 281.503 274.798,303.573 274.735,304.538 273.669 C 305.123 273.023,305.200 271.555,305.200 261.128 C 305.200 242.760,304.371 243.600,322.507 243.600 C 331.410 243.600,334.768 243.472,335.120 243.120 C 335.806 242.434,335.806 218.766,335.120 218.080 C 334.763 217.723,331.500 217.624,322.420 217.695 C 315.699 217.747,303.556 217.839,295.435 217.900 M187.880 218.500 C 187.263 218.959,187.199 221.326,187.104 247.271 C 186.972 283.212,189.026 279.336,170.009 279.526 C 161.938 279.607,157.236 279.804,156.909 280.075 C 155.946 280.875,156.196 303.863,157.174 304.386 C 157.697 304.666,176.561 304.800,215.400 304.800 C 254.239 304.800,273.103 304.666,273.626 304.386 C 274.604 303.863,274.854 280.875,273.891 280.075 C 273.564 279.804,268.862 279.607,260.791 279.526 C 241.784 279.336,243.854 283.233,243.600 247.156 C 243.426 222.507,243.321 218.721,242.800 218.391 C 241.823 217.774,188.715 217.879,187.880 218.500 M33.867 310.667 C 33.348 311.186,33.557 365.397,34.080 365.920 C 34.677 366.517,56.864 366.608,57.967 366.018 C 58.882 365.528,59.677 312.056,58.785 310.982 C 58.276 310.369,34.466 310.067,33.867 310.667 M280.262 341.531 C 279.187 342.719,279.254 395.563,280.331 396.538 C 281.298 397.413,334.397 397.570,335.115 396.700 C 335.965 395.669,336.237 342.525,335.396 341.595 C 334.315 340.401,281.340 340.340,280.262 341.531 M126.080 372.080 C 125.184 372.976,125.418 395.712,126.331 396.538 C 127.525 397.618,241.959 397.550,242.938 396.469 C 243.998 395.297,243.935 373.227,242.869 372.262 C 241.918 371.402,126.937 371.223,126.080 372.080 M126.300 433.632 C 125.414 434.148,125.207 457.047,126.080 457.920 C 126.774 458.614,180.826 458.614,181.520 457.920 C 182.330 457.110,182.191 434.649,181.371 433.829 C 180.609 433.066,127.596 432.877,126.300 433.632 " stroke="none" fill="#fcbc8c" fill-rule="evenodd"></path><path id="path1" d="M125.582 32.113 C 123.515 33.741,123.600 32.481,123.600 61.536 L 123.600 88.494 125.153 90.047 L 126.706 91.600 138.373 91.600 C 154.598 91.600,153.200 93.028,153.200 76.449 C 153.200 64.570,153.203 64.530,154.189 62.582 C 155.154 60.676,155.160 60.608,154.439 59.814 C 152.868 58.084,152.800 57.508,152.800 45.989 C 152.800 35.160,152.832 34.685,153.638 33.663 L 154.476 32.600 152.938 32.131 C 150.728 31.456,126.435 31.440,125.582 32.113 M216.301 32.081 L 214.802 32.479 215.601 33.601 C 216.354 34.659,216.400 35.369,216.400 45.982 C 216.400 57.639,216.279 58.606,214.659 59.951 C 214.139 60.382,214.187 60.712,215.043 62.581 L 216.021 64.718 215.911 78.059 L 215.800 91.400 244.158 91.276 C 274.921 91.141,273.731 91.060,276.047 93.448 L 277.400 94.843 277.600 107.580 C 277.856 123.909,276.016 122.000,291.500 122.000 C 303.003 122.000,303.738 122.044,304.791 122.794 L 305.906 123.587 306.553 121.012 C 307.419 117.562,307.516 66.020,306.659 64.476 C 305.328 62.078,304.896 62.006,291.847 62.003 L 279.895 62.000 278.147 60.253 L 276.400 58.505 276.400 46.542 C 276.400 33.841,276.374 33.654,274.418 32.113 C 273.628 31.490,218.640 31.460,216.301 32.081 M90.200 184.213 L 89.000 185.196 77.086 185.198 C 67.056 185.200,65.024 185.103,64.237 184.587 C 62.676 183.565,62.400 185.867,62.400 199.902 L 62.400 212.250 63.500 213.304 L 64.600 214.357 77.000 214.478 C 89.120 214.597,89.441 214.621,91.221 215.541 L 93.042 216.483 94.612 215.417 L 96.182 214.352 109.496 214.476 C 120.456 214.578,122.773 214.506,122.605 214.067 C 122.492 213.774,122.400 207.795,122.400 200.781 L 122.400 188.027 121.003 186.630 L 119.606 185.233 107.303 185.116 C 94.536 184.996,94.793 185.025,91.600 183.336 C 91.490 183.278,90.860 183.673,90.200 184.213 M337.400 184.152 C 335.895 184.950,335.054 185.012,323.266 185.200 L 310.733 185.400 309.566 186.706 L 308.400 188.013 308.395 200.506 C 308.392 207.378,308.292 213.360,308.174 213.800 C 307.961 214.590,308.123 214.598,321.151 214.475 C 334.973 214.345,336.403 214.499,337.051 216.189 C 337.216 216.617,337.710 216.504,339.331 215.668 L 341.400 214.600 353.800 214.478 L 366.200 214.357 367.300 213.304 L 368.400 212.250 368.400 199.902 C 368.400 185.731,368.000 182.672,366.400 184.600 C 365.978 185.109,364.079 185.200,353.889 185.200 L 341.876 185.200 340.564 184.200 C 339.843 183.650,339.196 183.223,339.127 183.252 C 339.057 183.281,338.280 183.686,337.400 184.152 M93.439 247.946 C 92.657 251.385,92.502 271.826,93.242 273.949 C 93.939 275.948,94.293 276.000,107.166 276.000 C 124.939 276.000,123.600 274.730,123.600 291.579 L 123.600 303.598 125.065 305.219 L 126.530 306.840 139.365 306.717 C 148.491 306.629,152.526 306.450,153.328 306.096 L 154.457 305.598 153.628 304.545 C 152.832 303.533,152.800 303.024,152.800 291.423 C 152.800 281.634,152.693 279.206,152.233 278.576 C 151.695 277.841,151.003 277.794,139.014 277.684 L 126.364 277.568 124.382 275.657 L 122.400 273.747 122.400 261.755 L 122.400 249.762 120.883 248.281 L 119.366 246.800 107.609 246.800 C 96.248 246.800,95.822 246.772,94.965 245.967 L 94.079 245.135 93.439 247.946 M335.821 245.977 C 335.101 246.772,334.678 246.800,323.219 246.800 L 311.362 246.800 309.881 248.317 L 308.400 249.834 308.400 261.579 L 308.400 273.324 307.354 274.696 C 305.135 277.605,305.179 277.597,291.874 277.599 C 284.862 277.599,279.646 277.761,279.216 277.992 C 277.802 278.748,277.600 280.561,277.600 292.528 C 277.600 302.703,277.519 304.226,276.947 304.858 C 275.616 306.329,277.605 306.584,291.435 306.717 L 304.270 306.840 305.735 305.219 L 307.200 303.598 307.201 291.499 C 307.204 274.669,305.770 276.006,323.825 276.002 C 335.475 276.000,335.877 275.974,336.748 275.162 L 337.647 274.325 337.514 260.662 C 337.436 252.553,337.216 246.625,336.973 246.077 L 336.565 245.154 335.821 245.977 M63.496 278.700 L 62.443 279.800 62.322 292.200 C 62.202 304.377,62.183 304.633,61.243 306.452 L 60.287 308.305 61.368 309.723 L 62.449 311.140 62.325 324.575 C 62.222 335.636,62.294 337.973,62.733 337.805 C 63.026 337.692,69.005 337.600,76.019 337.600 L 88.773 337.600 90.187 336.187 L 91.600 334.773 91.600 307.241 C 91.600 279.992,91.591 279.697,90.771 278.654 L 89.942 277.600 77.246 277.600 L 64.550 277.600 63.496 278.700 M340.162 278.442 C 339.432 279.248,339.392 280.464,339.200 307.342 L 339.000 335.400 338.064 337.300 L 337.129 339.200 338.179 340.448 L 339.230 341.697 339.115 355.148 L 339.000 368.600 352.400 368.400 C 366.344 368.192,367.092 368.097,367.991 366.417 C 368.262 365.910,368.400 351.212,368.400 322.701 L 368.400 279.750 367.278 278.675 L 366.156 277.600 353.540 277.600 C 341.224 277.600,340.906 277.620,340.162 278.442 M125.153 340.353 L 123.600 341.906 123.600 353.973 C 123.600 370.966,124.966 369.600,107.973 369.600 L 95.906 369.600 94.353 371.153 L 92.800 372.706 92.800 384.353 L 92.800 396.000 94.421 397.621 L 96.042 399.242 108.321 399.099 C 121.990 398.940,124.102 398.651,123.008 397.090 C 122.497 396.361,122.400 394.319,122.400 384.297 C 122.400 370.953,122.327 371.327,125.344 369.141 L 126.920 368.000 184.606 368.000 C 241.964 368.000,242.298 368.005,243.324 368.812 L 244.356 369.623 244.856 368.112 C 245.198 367.077,245.402 362.708,245.500 354.274 L 245.643 341.949 244.069 340.374 L 242.494 338.800 184.600 338.800 L 126.706 338.800 125.153 340.353 M244.797 398.700 C 244.796 398.865,244.185 399.415,243.440 399.922 L 242.086 400.844 213.643 400.722 L 185.200 400.600 185.200 413.474 C 185.200 427.368,185.280 427.973,187.290 429.198 C 188.577 429.983,189.329 429.997,230.900 429.999 L 273.200 430.000 274.817 428.383 L 276.434 426.766 276.317 414.750 L 276.200 402.733 274.894 401.567 L 273.587 400.400 261.494 400.396 C 249.450 400.392,249.391 400.388,247.260 399.396 C 244.897 398.296,244.801 398.269,244.797 398.700 M94.265 432.781 L 92.800 434.402 92.800 445.988 L 92.800 457.573 94.213 458.987 L 95.627 460.400 107.836 460.400 C 121.728 460.400,124.033 460.121,123.013 458.563 C 122.065 457.117,122.101 434.193,123.053 433.142 C 124.384 431.671,122.395 431.416,108.565 431.283 L 95.730 431.160 94.265 432.781 " stroke="none" fill="#14ac44" fill-rule="evenodd"></path><path id="path2" d="M119.200 13.400 L 119.200 26.800 104.574 26.800 C 95.256 26.800,89.667 26.950,89.174 27.214 C 88.430 27.612,88.400 28.207,88.400 42.614 L 88.400 57.600 73.414 57.600 C 59.007 57.600,58.412 57.630,58.014 58.374 C 57.750 58.867,57.600 64.456,57.600 73.774 L 57.600 88.400 42.614 88.400 C 28.207 88.400,27.612 88.430,27.214 89.174 C 26.668 90.194,26.646 217.536,27.191 218.400 C 27.515 218.913,29.759 219.017,42.585 219.114 L 57.600 219.228 57.600 246.000 L 57.600 272.772 42.585 272.886 C 29.759 272.983,27.515 273.087,27.191 273.600 C 26.971 273.949,26.810 280.343,26.806 288.900 L 26.800 303.600 13.400 303.600 L 0.000 303.600 0.000 338.200 L 0.000 372.800 13.400 372.800 L 26.800 372.800 26.800 387.426 C 26.800 396.744,26.950 402.333,27.214 402.826 C 27.612 403.570,28.207 403.600,42.614 403.600 L 57.600 403.600 57.600 415.200 L 57.600 426.800 42.447 426.800 L 27.293 426.800 27.052 427.700 C 26.647 429.213,26.777 463.745,27.191 464.400 C 27.515 464.913,29.759 465.017,42.585 465.114 L 57.600 465.228 57.600 478.614 L 57.600 492.000 200.000 492.000 L 342.400 492.000 342.400 478.614 L 342.400 465.228 357.415 465.114 C 370.241 465.017,372.485 464.913,372.809 464.400 C 373.223 463.745,373.353 429.213,372.948 427.700 L 372.707 426.800 357.553 426.800 L 342.400 426.800 342.400 415.200 L 342.400 403.600 357.386 403.600 C 371.793 403.600,372.388 403.570,372.786 402.826 C 373.050 402.333,373.200 396.744,373.200 387.426 L 373.200 372.800 386.600 372.800 L 400.000 372.800 400.000 322.800 L 400.000 272.800 386.600 272.800 L 373.200 272.800 373.200 246.000 L 373.200 219.200 386.600 219.200 L 400.000 219.200 400.000 153.800 L 400.000 88.400 386.600 88.400 L 373.200 88.400 373.200 73.774 C 373.200 64.456,373.050 58.867,372.786 58.374 C 372.382 57.619,371.618 57.600,341.986 57.600 L 311.600 57.600 311.600 42.614 C 311.600 28.207,311.570 27.612,310.826 27.214 C 310.333 26.950,304.744 26.800,295.426 26.800 L 280.800 26.800 280.800 13.400 L 280.800 0.000 200.000 0.000 L 119.200 0.000 119.200 13.400 M216.013 29.078 C 217.949 29.678,221.414 29.782,246.200 29.978 C 277.698 30.228,276.343 30.091,277.179 33.101 C 277.424 33.981,277.596 39.423,277.598 46.287 L 277.600 57.973 279.013 59.387 L 280.427 60.800 292.313 60.830 C 300.755 60.852,304.606 61.006,305.600 61.362 C 308.280 62.321,308.176 61.184,308.425 92.200 C 308.632 118.042,308.707 120.370,309.390 122.400 C 310.463 125.584,310.806 147.999,309.833 151.344 C 308.477 156.011,307.782 156.200,292.000 156.200 C 273.510 156.200,274.653 157.308,274.478 139.215 C 274.400 131.050,274.207 126.449,273.930 126.115 C 273.298 125.354,157.502 125.354,156.870 126.115 C 156.593 126.449,156.400 131.050,156.322 139.215 C 156.149 157.115,157.072 156.135,140.200 156.329 C 119.698 156.564,120.600 157.389,120.600 138.400 C 120.600 119.499,119.694 120.400,138.697 120.400 C 147.142 120.400,150.369 120.271,150.720 119.920 C 151.423 119.217,151.389 95.397,150.683 94.000 L 150.177 93.000 138.170 92.800 C 124.895 92.579,124.820 92.564,123.182 89.878 C 122.269 88.380,121.946 36.253,122.830 33.068 C 123.621 30.218,124.643 30.019,138.526 30.009 C 146.146 30.003,150.739 29.847,151.245 29.576 C 153.050 28.610,156.708 28.486,184.613 28.444 C 211.025 28.404,214.035 28.465,216.013 29.078 M155.694 64.701 L 154.388 65.351 154.494 76.964 L 154.600 88.577 155.600 89.082 C 157.179 89.881,211.492 89.823,213.413 89.020 L 214.800 88.441 214.800 76.894 L 214.800 65.348 213.386 64.674 C 211.270 63.665,157.726 63.690,155.694 64.701 M91.400 90.600 C 92.517 91.159,93.271 91.938,93.900 93.185 L 94.800 94.970 94.800 137.877 C 94.800 176.370,94.866 180.949,95.443 182.392 L 96.087 184.000 108.096 184.000 L 120.105 184.000 121.853 185.747 L 123.600 187.495 123.600 199.493 L 123.600 211.491 125.313 212.146 C 126.759 212.698,128.863 212.800,138.767 212.800 C 151.564 212.800,153.016 212.991,154.608 214.883 C 156.349 216.951,156.395 217.759,156.398 245.969 C 156.400 270.500,156.460 273.003,157.062 273.669 C 158.071 274.784,180.319 274.794,181.327 273.680 C 181.914 273.032,181.990 270.188,182.089 245.180 C 182.215 213.591,182.000 215.522,185.594 213.700 L 187.370 212.800 215.400 212.800 L 243.430 212.800 245.215 213.700 C 248.762 215.488,248.584 213.879,248.711 245.380 C 248.810 270.202,248.887 273.033,249.473 273.680 C 250.428 274.736,272.508 274.788,273.669 273.738 C 274.363 273.109,274.400 271.705,274.409 245.638 C 274.420 209.384,272.596 212.800,291.946 212.800 C 301.931 212.800,304.040 212.698,305.487 212.146 L 307.200 211.491 307.200 199.670 C 307.200 182.921,306.118 184.000,322.918 184.000 L 334.713 184.000 335.357 182.392 C 335.934 180.949,336.000 176.370,336.000 137.877 L 336.000 94.970 336.900 93.185 C 338.581 89.852,338.854 89.800,354.800 89.800 C 369.694 89.800,370.627 89.893,371.214 91.437 C 371.972 93.431,371.699 182.194,370.927 185.000 C 370.405 186.893,370.216 190.078,370.033 200.072 C 369.716 217.296,371.100 215.944,353.764 215.977 L 342.128 216.000 341.571 217.100 C 341.139 217.953,340.966 221.393,340.801 232.400 C 340.616 244.712,340.496 246.806,339.894 248.149 C 338.789 250.616,338.848 273.477,339.964 274.856 L 340.728 275.800 353.736 276.000 C 368.304 276.224,368.431 276.250,369.477 279.237 C 370.167 281.207,370.208 364.212,369.520 366.508 C 368.614 369.535,368.312 369.597,354.510 369.599 L 342.421 369.600 341.710 370.900 C 341.079 372.055,340.978 373.794,340.800 386.481 C 340.653 396.997,340.471 400.890,340.110 401.251 C 339.156 402.203,335.116 402.342,307.519 402.371 C 287.268 402.392,279.359 402.527,278.619 402.864 L 277.600 403.328 277.600 415.139 C 277.600 428.312,277.605 428.284,274.611 430.336 L 273.350 431.200 230.924 431.200 C 191.973 431.200,188.453 431.254,187.949 431.861 C 187.518 432.380,187.357 435.355,187.200 445.761 C 186.979 460.357,186.943 460.566,184.270 462.558 C 182.652 463.765,123.699 463.897,121.051 462.700 C 119.690 462.085,118.089 462.000,107.810 462.000 C 90.872 462.000,91.600 462.722,91.600 445.921 C 91.600 433.154,91.639 432.926,94.137 431.021 L 95.476 430.000 107.052 430.000 C 118.083 430.000,118.740 429.958,121.014 429.100 C 123.390 428.204,123.523 428.199,152.800 428.000 C 175.718 427.844,182.398 427.687,183.100 427.286 L 184.000 426.772 184.000 415.200 L 184.000 403.628 183.100 403.114 C 182.400 402.714,175.766 402.552,153.200 402.383 C 126.176 402.180,124.050 402.114,122.000 401.412 C 120.106 400.764,118.104 400.627,107.600 400.430 C 90.488 400.108,91.600 401.222,91.600 384.400 C 91.600 367.502,90.710 368.400,107.464 368.400 L 119.033 368.400 120.717 366.685 L 122.400 364.970 122.400 353.432 C 122.400 340.532,122.463 340.215,125.367 338.420 C 127.444 337.137,241.735 337.124,243.811 338.407 C 246.582 340.119,246.575 340.087,246.830 353.600 C 247.025 363.997,247.168 366.125,247.799 368.000 C 248.439 369.903,248.570 372.034,248.769 383.800 C 248.939 393.783,249.137 397.639,249.514 398.300 L 250.028 399.200 261.600 399.200 L 273.172 399.200 273.686 398.300 C 274.086 397.599,274.244 391.066,274.400 368.800 C 274.626 336.501,274.424 338.409,277.800 336.639 C 279.370 335.816,279.933 335.796,307.800 335.600 C 329.903 335.444,336.400 335.286,337.100 334.886 L 338.000 334.372 338.000 307.646 C 338.000 288.736,337.867 280.538,337.546 279.617 C 336.758 277.356,335.825 277.200,323.128 277.200 L 311.830 277.200 310.115 278.883 L 308.400 280.567 308.400 292.103 C 308.400 304.844,308.361 305.074,305.863 306.979 L 304.524 308.000 292.948 308.000 C 281.917 308.000,281.260 308.042,278.986 308.900 L 276.600 309.800 215.400 309.800 L 154.200 309.800 151.814 308.900 C 149.540 308.042,148.883 308.000,137.852 308.000 L 126.276 308.000 124.937 306.979 C 122.439 305.074,122.400 304.844,122.400 292.103 L 122.400 280.567 120.685 278.883 L 118.970 277.200 107.672 277.200 C 94.975 277.200,94.042 277.356,93.254 279.617 C 92.933 280.539,92.800 288.854,92.800 308.112 L 92.800 335.305 91.053 337.053 L 89.305 338.800 77.307 338.800 L 65.309 338.800 64.654 340.513 C 64.101 341.962,64.000 344.082,64.000 354.229 C 64.000 372.488,65.178 371.400,45.400 371.400 C 30.300 371.400,29.374 371.309,28.786 369.763 C 28.087 367.926,28.307 307.157,29.015 306.221 C 29.867 305.094,33.046 304.844,46.881 304.821 C 55.004 304.806,59.085 304.653,59.781 304.336 L 60.800 303.872 60.801 292.036 C 60.802 274.826,59.591 276.002,77.318 276.001 L 89.636 276.000 90.629 275.007 L 91.622 274.014 91.487 261.507 C 91.369 250.606,91.256 248.717,90.608 246.800 C 89.957 244.874,89.846 242.957,89.717 231.400 C 89.626 223.221,89.405 217.782,89.136 217.100 L 88.703 216.000 76.939 216.000 C 59.715 216.000,61.087 217.355,60.768 200.019 C 60.581 189.825,60.408 186.977,59.864 185.200 C 58.981 182.310,59.017 91.623,59.902 90.738 C 61.306 89.334,88.628 89.214,91.400 90.600 " stroke="none" fill="#040404" fill-rule="evenodd"></path><path id="path3" d="M156.136 31.922 C 152.782 33.288,152.800 33.213,152.800 45.983 C 152.800 58.041,152.910 58.791,154.887 60.176 C 156.240 61.124,212.960 61.124,214.313 60.176 C 216.291 58.790,216.400 58.047,216.398 45.920 C 216.396 33.045,216.434 33.200,212.892 31.851 C 210.247 30.843,158.626 30.908,156.136 31.922 M212.320 34.080 C 213.005 34.765,213.005 57.635,212.320 58.320 C 211.686 58.954,158.355 59.018,157.174 58.386 C 156.222 57.877,155.946 35.014,156.880 34.080 C 157.574 33.386,211.626 33.386,212.320 34.080 M217.200 91.619 C 215.990 91.792,214.371 92.129,213.603 92.367 C 212.658 92.660,203.420 92.800,185.083 92.800 C 155.277 92.800,156.283 92.719,154.990 95.219 C 154.458 96.249,154.384 98.183,154.483 108.448 L 154.600 120.470 155.722 121.435 L 156.845 122.400 215.642 122.400 C 280.349 122.400,276.247 122.237,277.157 124.848 C 277.443 125.670,277.600 130.394,277.600 138.213 L 277.600 150.307 279.201 151.753 L 280.802 153.200 292.463 153.200 L 304.124 153.200 305.662 151.583 L 307.200 149.966 307.200 138.654 C 307.200 120.878,308.258 122.000,291.500 122.000 C 276.016 122.000,277.856 123.909,277.600 107.584 L 277.400 94.851 276.200 93.590 C 273.807 91.075,275.351 91.195,246.120 91.252 C 231.424 91.281,218.410 91.446,217.200 91.619 M64.305 93.426 C 61.881 94.742,62.000 92.415,62.000 138.330 C 62.000 175.007,62.077 180.520,62.613 182.050 C 63.733 185.248,63.429 185.181,77.000 185.189 L 89.000 185.196 90.200 184.236 L 91.400 183.276 91.505 139.560 L 91.611 95.845 90.124 94.322 L 88.638 92.800 77.019 92.816 C 67.523 92.829,65.200 92.941,64.305 93.426 M340.661 94.219 L 339.200 95.639 339.200 139.259 L 339.200 182.879 340.442 184.040 L 341.685 185.200 353.773 185.200 C 367.137 185.200,366.512 185.318,367.950 182.526 C 368.557 181.348,368.594 95.910,367.988 94.778 C 367.008 92.946,365.954 92.800,353.681 92.800 L 342.123 92.800 340.661 94.219 M88.869 95.462 C 89.730 96.242,90.039 179.632,89.186 181.226 C 88.677 182.178,65.814 182.454,64.880 181.520 C 64.183 180.823,64.183 95.977,64.880 95.280 C 65.716 94.444,87.929 94.612,88.869 95.462 M273.669 95.462 C 274.831 96.514,274.792 119.362,273.626 119.986 C 272.140 120.782,158.016 120.539,157.131 119.738 C 156.065 118.773,156.002 96.703,157.062 95.531 C 158.041 94.450,272.475 94.382,273.669 95.462 M365.920 95.280 C 366.617 95.977,366.617 180.823,365.920 181.520 C 364.986 182.454,342.123 182.178,341.614 181.226 C 340.821 179.744,341.062 96.415,341.862 95.531 C 342.688 94.618,365.025 94.385,365.920 95.280 M125.153 125.153 L 123.600 126.706 123.600 138.400 L 123.600 150.094 125.153 151.647 L 126.706 153.200 138.352 153.200 L 149.998 153.200 151.599 151.753 L 153.200 150.307 153.200 138.372 C 153.200 122.074,154.715 123.600,138.534 123.600 L 126.706 123.600 125.153 125.153 M150.469 126.262 C 151.535 127.227,151.598 149.297,150.538 150.469 C 149.573 151.535,127.503 151.598,126.331 150.538 C 125.265 149.573,125.202 127.503,126.262 126.331 C 127.227 125.265,149.297 125.202,150.469 126.262 M304.320 126.080 C 305.006 126.766,305.006 150.034,304.320 150.720 C 303.484 151.556,281.271 151.388,280.331 150.538 C 279.418 149.712,279.184 126.976,280.080 126.080 C 280.765 125.395,303.635 125.395,304.320 126.080 M94.805 215.285 C 92.930 216.549,92.851 217.167,92.823 230.713 C 92.788 247.922,91.758 246.800,107.589 246.800 L 119.438 246.800 120.919 248.317 L 122.400 249.834 122.400 261.790 L 122.400 273.747 124.382 275.657 L 126.364 277.568 139.014 277.684 C 151.003 277.794,151.695 277.841,152.233 278.576 C 152.693 279.206,152.800 281.634,152.800 291.423 C 152.800 304.981,152.786 304.915,155.886 306.210 C 157.780 307.001,272.831 307.111,274.681 306.324 C 277.720 305.030,277.600 305.596,277.600 292.590 C 277.600 280.560,277.800 278.749,279.216 277.992 C 279.646 277.761,284.862 277.599,291.874 277.599 C 305.179 277.597,305.135 277.605,307.354 274.696 L 308.400 273.324 308.400 261.543 L 308.400 249.762 309.917 248.281 L 311.434 246.800 323.281 246.800 L 335.129 246.800 336.154 245.582 C 337.934 243.466,338.070 242.234,337.930 229.400 C 337.789 216.392,337.742 216.108,335.553 214.976 C 333.734 214.035,308.770 214.334,305.836 215.332 C 304.178 215.896,302.045 216.000,292.096 216.000 L 280.320 216.000 278.960 217.360 L 277.600 218.720 277.600 246.173 C 277.600 275.476,277.583 275.739,275.660 276.768 C 275.130 277.052,270.434 277.200,261.974 277.200 L 249.095 277.200 247.347 275.453 L 245.600 273.705 245.600 246.266 L 245.600 218.827 244.187 217.413 L 242.773 216.000 215.400 216.000 L 188.027 216.000 186.613 217.413 L 185.200 218.827 185.200 246.266 L 185.200 273.705 183.453 275.453 L 181.705 277.200 168.675 277.200 L 155.645 277.200 154.522 276.235 L 153.400 275.270 153.290 247.052 L 153.179 218.835 151.842 217.417 L 150.506 216.000 138.716 216.000 C 128.752 216.000,126.623 215.897,124.964 215.332 C 123.327 214.775,120.771 214.637,109.600 214.504 L 96.200 214.345 94.805 215.285 M150.700 218.498 C 151.570 219.194,151.413 272.702,150.538 273.669 C 149.573 274.735,127.503 274.798,126.331 273.738 C 125.654 273.125,125.600 272.192,125.600 261.023 C 125.600 242.837,126.572 243.846,108.893 243.684 C 100.580 243.607,96.064 243.419,95.721 243.135 C 94.980 242.519,94.960 218.806,95.700 218.048 C 96.330 217.402,149.879 217.840,150.700 218.498 M335.120 218.080 C 335.806 218.766,335.806 242.434,335.120 243.120 C 334.768 243.472,331.410 243.600,322.507 243.600 C 304.371 243.600,305.200 242.760,305.200 261.128 C 305.200 271.555,305.123 273.023,304.538 273.669 C 303.573 274.735,281.503 274.798,280.331 273.738 C 279.364 272.862,279.173 219.252,280.135 218.454 C 280.500 218.151,285.357 217.975,295.435 217.900 C 303.556 217.839,315.699 217.747,322.420 217.695 C 331.500 217.624,334.763 217.723,335.120 218.080 M242.800 218.391 C 243.321 218.721,243.426 222.507,243.600 247.156 C 243.854 283.233,241.784 279.336,260.791 279.526 C 268.862 279.607,273.564 279.804,273.891 280.075 C 274.854 280.875,274.604 303.863,273.626 304.386 C 273.103 304.666,254.239 304.800,215.400 304.800 C 176.561 304.800,157.697 304.666,157.174 304.386 C 156.196 303.863,155.946 280.875,156.909 280.075 C 157.236 279.804,161.938 279.607,170.009 279.526 C 189.026 279.336,186.972 283.212,187.104 247.271 C 187.199 221.326,187.263 218.959,187.880 218.500 C 188.715 217.879,241.823 217.774,242.800 218.391 M33.510 308.607 C 31.573 309.688,31.600 309.262,31.600 338.351 L 31.600 365.955 32.565 367.078 L 33.530 368.200 45.735 368.316 L 57.940 368.433 59.370 367.003 L 60.800 365.573 60.800 354.012 C 60.800 343.843,60.896 342.050,61.597 339.125 C 62.305 336.175,62.395 334.400,62.397 323.385 L 62.400 310.970 61.244 309.585 L 60.089 308.200 47.344 308.100 C 36.557 308.015,34.433 308.093,33.510 308.607 M58.785 310.982 C 59.677 312.056,58.882 365.528,57.967 366.018 C 56.864 366.608,34.677 366.517,34.080 365.920 C 33.557 365.397,33.348 311.186,33.867 310.667 C 34.466 310.067,58.276 310.369,58.785 310.982 M279.213 340.236 L 277.600 341.693 277.600 369.087 L 277.600 396.480 278.960 397.840 L 280.320 399.200 307.380 399.200 C 337.071 399.200,336.120 399.276,337.393 396.813 C 337.895 395.842,338.001 393.585,338.005 383.720 C 338.008 374.482,338.142 371.305,338.600 369.600 C 339.062 367.877,339.192 364.603,339.195 354.506 L 339.200 341.613 338.033 340.306 L 336.866 339.000 308.846 338.890 L 280.825 338.779 279.213 340.236 M335.396 341.595 C 336.237 342.525,335.965 395.669,335.115 396.700 C 334.397 397.570,281.298 397.413,280.331 396.538 C 279.254 395.563,279.187 342.719,280.262 341.531 C 281.340 340.340,334.315 340.401,335.396 341.595 M125.344 369.141 C 122.329 371.326,122.400 370.963,122.400 384.212 C 122.400 397.392,122.378 397.276,125.061 398.426 C 126.787 399.166,128.064 399.200,154.170 399.200 C 178.759 399.200,181.668 399.267,183.436 399.876 C 185.191 400.480,188.423 400.567,213.743 400.698 L 242.086 400.844 243.447 399.922 C 245.447 398.567,245.596 397.485,245.589 384.400 C 245.583 373.736,245.510 372.441,244.835 370.953 C 243.365 367.718,249.119 368.000,184.571 368.000 L 126.920 368.000 125.344 369.141 M242.869 372.262 C 243.935 373.227,243.998 395.297,242.938 396.469 C 241.959 397.550,127.525 397.618,126.331 396.538 C 125.418 395.712,125.184 372.976,126.080 372.080 C 126.937 371.223,241.918 371.402,242.869 372.262 M125.136 431.738 C 122.284 433.005,122.399 432.415,122.409 445.762 C 122.421 462.614,118.604 460.800,154.055 460.800 L 180.894 460.800 182.447 459.247 L 184.000 457.694 184.000 445.807 L 184.000 433.920 182.640 432.560 L 181.280 431.200 153.740 431.232 C 133.484 431.256,125.919 431.390,125.136 431.738 M181.371 433.829 C 182.191 434.649,182.330 457.110,181.520 457.920 C 180.826 458.614,126.774 458.614,126.080 457.920 C 125.207 457.047,125.414 434.148,126.300 433.632 C 127.596 432.877,180.609 433.066,181.371 433.829 " stroke="none" fill="#c0c048" fill-rule="evenodd"></path><path id="path4" d="M153.719 28.820 C 152.794 29.002,151.681 29.343,151.245 29.576 C 150.739 29.847,146.146 30.003,138.526 30.009 C 124.643 30.019,123.621 30.218,122.830 33.068 C 121.946 36.253,122.269 88.380,123.182 89.878 C 124.820 92.564,124.895 92.579,138.170 92.800 L 150.177 93.000 150.683 94.000 C 151.389 95.397,151.423 119.217,150.720 119.920 C 150.369 120.271,147.142 120.400,138.697 120.400 C 119.694 120.400,120.600 119.499,120.600 138.400 C 120.600 157.389,119.698 156.564,140.200 156.329 C 157.072 156.135,156.149 157.115,156.322 139.215 C 156.400 131.050,156.593 126.449,156.870 126.115 C 157.502 125.354,273.298 125.354,273.930 126.115 C 274.207 126.449,274.400 131.050,274.478 139.215 C 274.653 157.308,273.510 156.200,292.000 156.200 C 307.782 156.200,308.477 156.011,309.833 151.344 C 310.806 147.999,310.463 125.584,309.390 122.400 C 308.707 120.370,308.632 118.042,308.425 92.200 C 308.176 61.184,308.280 62.321,305.600 61.362 C 304.606 61.006,300.755 60.852,292.313 60.830 L 280.427 60.800 279.013 59.387 L 277.600 57.973 277.598 46.287 C 277.596 39.423,277.424 33.981,277.179 33.101 C 276.343 30.091,277.698 30.228,246.200 29.978 C 221.414 29.782,217.949 29.678,216.013 29.078 C 213.611 28.333,157.362 28.100,153.719 28.820 M212.832 31.859 C 214.214 32.413,214.801 32.445,216.471 32.059 C 219.392 31.385,273.558 31.435,274.418 32.113 C 276.374 33.654,276.400 33.841,276.400 46.542 L 276.400 58.505 278.147 60.253 L 279.895 62.000 291.847 62.003 C 304.896 62.006,305.328 62.078,306.659 64.476 C 307.513 66.016,307.420 117.561,306.556 120.999 C 305.964 123.356,305.964 123.715,306.556 125.453 C 307.088 127.015,307.200 129.306,307.200 138.654 L 307.200 149.966 305.662 151.583 L 304.124 153.200 292.463 153.200 L 280.802 153.200 279.201 151.753 L 277.600 150.307 277.600 138.213 C 277.600 130.394,277.443 125.670,277.157 124.848 C 276.247 122.237,280.349 122.400,215.642 122.400 L 156.845 122.400 155.722 121.435 L 154.600 120.470 154.483 108.448 C 154.384 98.183,154.458 96.249,154.990 95.219 C 156.283 92.719,155.278 92.800,185.080 92.798 C 211.955 92.796,214.913 92.666,215.694 91.455 C 216.540 90.144,216.009 64.641,215.095 62.691 L 214.200 60.781 184.686 60.691 L 155.172 60.600 154.186 62.579 C 153.204 64.548,153.200 64.611,153.200 76.460 C 153.200 93.026,154.597 91.600,138.373 91.600 L 126.706 91.600 125.153 90.047 L 123.600 88.494 123.600 61.536 C 123.600 32.481,123.515 33.741,125.582 32.113 C 126.424 31.449,149.884 31.403,152.728 32.059 C 154.386 32.442,154.975 32.412,156.259 31.880 C 158.638 30.894,210.372 30.875,212.832 31.859 M213.386 64.674 L 214.800 65.348 214.800 76.894 L 214.800 88.441 213.413 89.020 C 211.492 89.823,157.179 89.881,155.600 89.082 L 154.600 88.577 154.494 76.964 L 154.388 65.351 155.694 64.701 C 157.726 63.690,211.270 63.665,213.386 64.674 M62.302 89.962 C 61.258 90.113,60.178 90.462,59.902 90.738 C 59.017 91.623,58.981 182.310,59.864 185.200 C 60.408 186.977,60.581 189.825,60.768 200.019 C 61.087 217.355,59.715 216.000,76.939 216.000 L 88.703 216.000 89.136 217.100 C 89.405 217.782,89.626 223.221,89.717 231.400 C 89.846 242.957,89.957 244.874,90.608 246.800 C 91.256 248.717,91.369 250.606,91.487 261.507 L 91.622 274.014 90.629 275.007 L 89.636 276.000 77.318 276.001 C 59.591 276.002,60.802 274.826,60.801 292.036 L 60.800 303.872 59.781 304.336 C 59.085 304.653,55.004 304.806,46.881 304.821 C 33.046 304.844,29.867 305.094,29.015 306.221 C 28.307 307.157,28.087 367.926,28.786 369.763 C 29.374 371.309,30.300 371.400,45.400 371.400 C 65.178 371.400,64.000 372.488,64.000 354.229 C 64.000 344.082,64.101 341.962,64.654 340.513 L 65.309 338.800 77.307 338.800 L 89.305 338.800 91.053 337.053 L 92.800 335.305 92.800 308.112 C 92.800 288.854,92.933 280.539,93.254 279.617 C 94.042 277.356,94.975 277.200,107.672 277.200 L 118.970 277.200 120.685 278.883 L 122.400 280.567 122.400 292.103 C 122.400 304.844,122.439 305.074,124.937 306.979 L 126.276 308.000 137.852 308.000 C 148.883 308.000,149.540 308.042,151.814 308.900 L 154.200 309.800 215.400 309.800 L 276.600 309.800 278.986 308.900 C 281.260 308.042,281.917 308.000,292.948 308.000 L 304.524 308.000 305.863 306.979 C 308.361 305.074,308.400 304.844,308.400 292.103 L 308.400 280.567 310.115 278.883 L 311.830 277.200 323.128 277.200 C 335.825 277.200,336.758 277.356,337.546 279.617 C 337.867 280.538,338.000 288.736,338.000 307.646 L 338.000 334.372 337.100 334.886 C 336.400 335.286,329.903 335.444,307.800 335.600 C 279.933 335.796,279.370 335.816,277.800 336.639 C 274.424 338.409,274.626 336.501,274.400 368.800 C 274.244 391.066,274.086 397.599,273.686 398.300 L 273.172 399.200 261.600 399.200 L 250.028 399.200 249.514 398.300 C 249.137 397.639,248.939 393.783,248.769 383.800 C 248.570 372.034,248.439 369.903,247.799 368.000 C 247.168 366.125,247.025 363.997,246.830 353.600 C 246.575 340.087,246.582 340.119,243.811 338.407 C 241.735 337.124,127.444 337.137,125.367 338.420 C 122.463 340.215,122.400 340.532,122.400 353.432 L 122.400 364.970 120.717 366.685 L 119.033 368.400 107.464 368.400 C 90.710 368.400,91.600 367.502,91.600 384.400 C 91.600 401.222,90.488 400.108,107.600 400.430 C 118.104 400.627,120.106 400.764,122.000 401.412 C 124.050 402.114,126.176 402.180,153.200 402.383 C 175.766 402.552,182.400 402.714,183.100 403.114 L 184.000 403.628 184.000 415.200 L 184.000 426.772 183.100 427.286 C 182.398 427.687,175.718 427.844,152.800 428.000 C 123.523 428.199,123.390 428.204,121.014 429.100 C 118.740 429.958,118.083 430.000,107.052 430.000 L 95.476 430.000 94.137 431.021 C 91.639 432.926,91.600 433.154,91.600 445.921 C 91.600 462.722,90.872 462.000,107.810 462.000 C 118.089 462.000,119.690 462.085,121.051 462.700 C 123.699 463.897,182.652 463.765,184.270 462.558 C 186.943 460.566,186.979 460.357,187.200 445.761 C 187.357 435.355,187.518 432.380,187.949 431.861 C 188.453 431.254,191.973 431.200,230.924 431.200 L 273.350 431.200 274.611 430.336 C 277.605 428.284,277.600 428.312,277.600 415.139 L 277.600 403.328 278.619 402.864 C 279.359 402.527,287.268 402.392,307.519 402.371 C 335.116 402.342,339.156 402.203,340.110 401.251 C 340.471 400.890,340.653 396.997,340.800 386.481 C 340.978 373.794,341.079 372.055,341.710 370.900 L 342.421 369.600 354.510 369.599 C 368.312 369.597,368.614 369.535,369.520 366.508 C 370.208 364.212,370.167 281.207,369.477 279.237 C 368.431 276.250,368.304 276.224,353.736 276.000 L 340.728 275.800 339.964 274.856 C 338.848 273.477,338.789 250.616,339.894 248.149 C 340.496 246.806,340.616 244.712,340.801 232.400 C 340.966 221.393,341.139 217.953,341.571 217.100 L 342.128 216.000 353.764 215.977 C 371.100 215.944,369.716 217.296,370.033 200.072 C 370.216 190.078,370.405 186.893,370.927 185.000 C 371.699 182.194,371.972 93.431,371.214 91.437 C 370.627 89.893,369.694 89.800,354.800 89.800 C 338.854 89.800,338.581 89.852,336.900 93.185 L 336.000 94.970 336.000 137.877 C 336.000 176.370,335.934 180.949,335.357 182.392 L 334.713 184.000 322.918 184.000 C 306.118 184.000,307.200 182.921,307.200 199.670 L 307.200 211.491 305.487 212.146 C 304.040 212.698,301.931 212.800,291.946 212.800 C 272.596 212.800,274.420 209.384,274.409 245.638 C 274.400 271.705,274.363 273.109,273.669 273.738 C 272.508 274.788,250.428 274.736,249.473 273.680 C 248.887 273.033,248.810 270.202,248.711 245.380 C 248.584 213.879,248.762 215.488,245.215 213.700 L 243.430 212.800 215.400 212.800 L 187.370 212.800 185.594 213.700 C 182.000 215.522,182.215 213.591,182.089 245.180 C 181.990 270.188,181.914 273.032,181.327 273.680 C 180.319 274.794,158.071 274.784,157.062 273.669 C 156.460 273.003,156.400 270.500,156.398 245.969 C 156.395 217.759,156.349 216.951,154.608 214.883 C 153.016 212.991,151.564 212.800,138.767 212.800 C 128.863 212.800,126.759 212.698,125.313 212.146 L 123.600 211.491 123.600 199.493 L 123.600 187.495 121.853 185.747 L 120.105 184.000 108.096 184.000 L 96.087 184.000 95.443 182.392 C 94.866 180.949,94.800 176.370,94.800 137.877 L 94.800 94.970 93.900 93.185 C 92.241 89.896,91.815 89.809,77.000 89.743 C 69.960 89.712,63.346 89.810,62.302 89.962 M90.124 94.322 L 91.611 95.845 91.505 139.535 L 91.400 183.226 93.200 184.113 C 94.923 184.962,95.528 185.005,107.303 185.116 L 119.606 185.233 121.003 186.630 L 122.400 188.027 122.406 200.913 C 122.409 208.001,122.561 214.034,122.742 214.320 C 123.603 215.677,126.677 216.000,138.716 216.000 L 150.506 216.000 151.842 217.417 L 153.179 218.835 153.290 247.052 L 153.400 275.270 154.522 276.235 L 155.645 277.200 168.675 277.200 L 181.705 277.200 183.453 275.453 L 185.200 273.705 185.200 246.266 L 185.200 218.827 186.613 217.413 L 188.027 216.000 215.400 216.000 L 242.773 216.000 244.187 217.413 L 245.600 218.827 245.600 246.266 L 245.600 273.705 247.347 275.453 L 249.095 277.200 261.974 277.200 C 270.434 277.200,275.130 277.052,275.660 276.768 C 277.583 275.739,277.600 275.476,277.600 246.173 L 277.600 218.720 278.960 217.360 L 280.320 216.000 292.087 216.000 C 305.096 216.000,307.676 215.662,308.148 213.898 C 308.281 213.404,308.392 207.378,308.395 200.506 L 308.400 188.013 309.566 186.706 L 310.733 185.400 323.266 185.200 C 335.188 185.010,335.888 184.957,337.600 184.113 L 339.400 183.226 339.297 139.435 L 339.193 95.645 340.658 94.223 L 342.123 92.800 353.681 92.800 C 365.954 92.800,367.008 92.946,367.988 94.778 C 368.664 96.040,368.521 181.530,367.842 182.756 C 367.401 183.551,367.403 184.015,367.856 185.520 C 368.264 186.876,368.400 190.434,368.400 199.789 L 368.400 212.250 367.300 213.304 L 366.200 214.357 353.800 214.478 C 341.883 214.595,341.330 214.635,339.600 215.497 L 337.800 216.394 337.935 229.048 C 338.053 240.119,337.986 241.921,337.402 243.451 C 336.850 244.897,336.809 245.551,337.167 247.220 C 338.090 251.524,337.730 274.247,336.725 275.184 C 335.884 275.968,335.371 276.000,323.825 276.002 C 305.770 276.006,307.204 274.669,307.201 291.499 L 307.200 303.598 305.753 305.199 L 304.307 306.800 292.217 306.800 C 282.813 306.800,279.699 306.671,278.202 306.221 C 276.520 305.715,276.100 305.715,274.889 306.221 C 272.803 307.092,157.997 307.092,155.911 306.221 C 154.700 305.715,154.280 305.715,152.598 306.221 C 151.101 306.671,147.987 306.800,138.583 306.800 L 126.493 306.800 125.047 305.199 L 123.600 303.598 123.600 291.579 C 123.600 274.730,124.939 276.000,107.166 276.000 C 94.293 276.000,93.939 275.948,93.242 273.949 C 92.507 271.840,92.657 251.386,93.432 247.977 C 94.016 245.413,94.013 245.061,93.398 243.450 C 92.814 241.922,92.747 240.116,92.865 229.082 L 93.000 216.462 91.200 215.531 C 89.447 214.624,89.079 214.597,77.000 214.478 L 64.600 214.357 63.500 213.304 L 62.400 212.250 62.400 199.902 C 62.400 192.192,62.566 186.893,62.843 185.794 C 63.203 184.364,63.166 183.679,62.643 182.145 C 61.695 179.362,61.659 97.021,62.605 95.190 C 63.780 92.918,64.290 92.834,77.019 92.816 L 88.638 92.800 90.124 94.322 M151.337 124.044 C 153.083 124.840,153.200 125.738,153.200 138.372 L 153.200 150.307 151.599 151.753 L 149.998 153.200 138.352 153.200 L 126.706 153.200 125.153 151.647 L 123.600 150.094 123.600 138.400 L 123.600 126.706 125.153 125.153 L 126.706 123.600 138.534 123.600 C 146.351 123.600,150.693 123.751,151.337 124.044 M90.771 278.654 C 91.591 279.697,91.600 279.992,91.600 307.241 L 91.600 334.773 90.187 336.187 L 88.773 337.600 75.863 337.600 C 66.135 337.600,62.799 337.723,62.327 338.100 C 61.095 339.086,60.800 342.144,60.800 353.964 L 60.800 365.573 59.370 367.003 L 57.940 368.433 45.735 368.316 L 33.530 368.200 32.565 367.078 L 31.600 365.955 31.600 338.267 C 31.600 307.971,31.484 309.442,33.950 308.421 C 34.823 308.059,38.438 307.966,47.735 308.065 L 60.338 308.200 61.269 306.400 C 62.176 304.647,62.203 304.279,62.322 292.200 L 62.443 279.800 63.496 278.700 L 64.550 277.600 77.246 277.600 L 89.942 277.600 90.771 278.654 M367.278 278.675 L 368.400 279.750 368.400 322.701 C 368.400 351.395,368.263 365.908,367.988 366.422 C 366.992 368.283,366.061 368.400,352.234 368.400 L 339.228 368.400 338.714 369.300 C 338.337 369.961,338.147 373.657,338.000 383.200 C 337.854 392.712,337.663 396.440,337.288 397.096 C 336.064 399.239,336.616 399.200,307.380 399.200 L 280.320 399.200 278.960 397.840 L 277.600 396.480 277.600 369.087 L 277.600 341.693 279.215 340.234 L 280.831 338.774 309.028 338.887 L 337.226 339.000 338.113 337.200 C 338.997 335.405,339.001 335.314,339.200 307.342 C 339.392 280.464,339.432 279.248,340.162 278.442 C 340.906 277.620,341.224 277.600,353.540 277.600 L 366.156 277.600 367.278 278.675 M244.047 340.353 L 245.600 341.906 245.600 353.395 C 245.600 362.506,245.471 365.383,244.976 367.292 C 244.407 369.489,244.409 369.840,245.000 371.316 C 245.555 372.704,245.636 374.755,245.571 385.759 L 245.496 398.583 247.448 399.487 C 249.337 400.361,249.788 400.390,261.494 400.395 L 273.587 400.400 274.894 401.567 L 276.200 402.733 276.317 414.750 L 276.434 426.766 274.817 428.383 L 273.200 430.000 230.980 430.000 C 186.043 430.000,187.546 430.061,185.971 428.166 C 185.510 427.611,185.361 424.847,185.200 413.852 L 185.000 400.225 183.400 399.743 C 182.224 399.389,174.523 399.253,154.349 399.231 C 130.274 399.204,126.712 399.122,125.384 398.568 C 124.004 397.991,123.648 397.991,121.353 398.568 C 119.351 399.071,116.499 399.200,107.418 399.200 L 96.000 399.200 94.400 397.600 L 92.800 396.000 92.800 384.353 L 92.800 372.706 94.353 371.153 L 95.906 369.600 107.973 369.600 C 124.966 369.600,123.600 370.966,123.600 353.973 L 123.600 341.906 125.153 340.353 L 126.706 338.800 184.600 338.800 L 242.494 338.800 244.047 340.353 M121.798 431.779 C 123.480 432.285,123.900 432.285,125.111 431.779 C 126.276 431.293,130.877 431.200,153.889 431.200 L 181.280 431.200 182.640 432.560 L 184.000 433.920 184.000 445.807 L 184.000 457.694 182.447 459.247 L 180.894 460.800 154.055 460.800 C 130.056 460.800,127.042 460.730,125.568 460.141 C 124.186 459.587,123.599 459.555,121.929 459.941 C 120.664 460.233,115.514 460.400,107.783 460.400 L 95.627 460.400 94.213 458.987 L 92.800 457.573 92.800 445.988 L 92.800 434.402 94.247 432.801 L 95.693 431.200 107.783 431.200 C 117.187 431.200,120.301 431.329,121.798 431.779 " stroke="none" fill="#40304c" fill-rule="evenodd"></path></g></svg>